<?xml version="1.0" encoding="UTF-8"?>
<svg id="Layer_1" data-name="Layer 1" xmlns="http://www.w3.org/2000/svg" version="1.1" viewBox="0 0 595.28 841.89">
  <defs>
    <style>
      .cls-1 {
        fill: #7cccbf;
        stroke-width: 0px;
      }
    </style>
  </defs>
  <path class="cls-1" d="M432.68,340.28l-.68-21.64c-.05-1.67-1.08-3.15-2.61-3.79-.3-.12-.61-.2-.92-.26-2.35-1.25-5.91-1.48-9.19-1.48h-243.17c-5.21,0-11.13.59-11.76,4.9-.01.06-.01.13-.02.19-.01.12-.04.24-.04.37l-3.96,54.46c-.39,1.14-.62,2.36-.62,3.63v238.46c0,10.69,8.7,19.38,19.38,19.38h237.21c10.69,0,19.38-8.7,19.38-19.38v-238.46c0-1.27-.22-2.49-.62-3.63l-2.38-32.74ZM416.05,321.61l-21.77,20.28c-.89.83-1.39,2.01-1.35,3.23.03,1.22.59,2.37,1.53,3.15l20.66,17.23h-234.84l20.66-17.23c.94-.78,1.49-1.93,1.53-3.15.03-1.22-.46-2.4-1.35-3.23l-21.77-20.28h236.72ZM427.18,615.11c0,6-4.88,10.88-10.88,10.88h-237.21c-6,0-10.88-4.88-10.88-10.88v-238.46c0-1.47,1.19-2.66,2.66-2.66h253.65c1.47,0,2.66,1.19,2.66,2.66v238.46Z"/>
  <path class="cls-1" d="M360.01,417.62c-8.56,0-15.52,6.96-15.52,15.52,0,6.52,4.04,12.1,9.75,14.4-5.98,25.69-29.05,44.89-56.54,44.89s-50.56-19.2-56.54-44.89c5.71-2.3,9.75-7.88,9.75-14.4,0-8.56-6.96-15.52-15.52-15.52s-15.52,6.96-15.52,15.52c0,7.62,5.52,13.96,12.77,15.27,6.47,29.98,33.18,52.53,65.07,52.53s58.6-22.54,65.07-52.53c7.25-1.3,12.78-7.64,12.78-15.27,0-8.56-6.96-15.52-15.52-15.52Z"/>
  <path class="cls-1" d="M297.69,268.82c2.35,0,4.25-1.9,4.25-4.25v-52.09c0-2.35-1.9-4.25-4.25-4.25s-4.25,1.9-4.25,4.25v52.09c0,2.35,1.9,4.25,4.25,4.25Z"/>
  <path class="cls-1" d="M339.47,291.72c1.09,0,2.18-.42,3.01-1.25l36.83-36.83c1.66-1.66,1.66-4.35,0-6.01-1.66-1.66-4.35-1.66-6.01,0l-36.83,36.83c-1.66,1.66-1.66,4.35,0,6.01.83.83,1.92,1.25,3.01,1.25Z"/>
  <path class="cls-1" d="M252.91,290.48c.83.83,1.92,1.25,3.01,1.25s2.18-.42,3.01-1.25c1.66-1.66,1.66-4.35,0-6.01l-36.83-36.83c-1.66-1.66-4.35-1.66-6.01,0-1.66,1.66-1.66,4.35,0,6.01l36.83,36.83Z"/>
</svg>