<?xml version="1.0" encoding="UTF-8"?>
<svg id="Layer_2" data-name="Layer 2" xmlns="http://www.w3.org/2000/svg" version="1.1" viewBox="0 0 464.88 266.46">
  <defs>
    <style>
      .cls-1 {
        fill: #7cccbf;
        stroke-width: 0px;
      }
    </style>
  </defs>
  <path class="cls-1" d="M177.94,91.63c-.49,2.35-.93,4.71-1.14,7.11-.65,6.6.23,13.37,2.67,19.55,1.7,4.32,4.13,8.35,7.1,11.92,2.9,3.48,5.89,6.88,8.98,10.19,2.71,2.96,5.37,5.97,8.12,8.89,1.21,1.36,2.43,2.72,3.65,4.08,5.94.21,12.06.24,18.58.09-3.69-4.09-7.39-8.17-11.06-12.28-4.23-5.23-8.93-10.05-13.5-14.97-5.93-6.45-11.75-13.22-15.41-21.25-3.32-7.26-4.74-15.29-4.65-23.24-.34.68-.55,1.41-.67,2.15-1.34,7.32-1.25,14.95.62,22.17,1.52,5.93,4.42,11.51,8.45,16.12-1.65-1.35-3.03-3-4.31-4.7-4.63-6.27-7.05-14.03-7.33-21.78-.08-1.35.04-2.71-.09-4.06ZM167.52,66.69c5.45,1.96,10.3,5.35,14.45,9.36,6.1,6,12.36,11.82,18.52,17.75v.02c-.25,0-.44.02-.58.02-5.21.24-10.14.97-14.17,2.09l.02.07h0s.87,3.01.87,3.01h0c2.43-.63,5.37-1.11,8.61-1.38,1.95-.16,4-.25,6.13-.25.26,0,.51,0,.76.01h0s.58,0,.58,0h8.74c.31,0,.51-.11.65-.26.03-.03.06-.06.09-.1.03-.04.05-.08.07-.12.01-.03.03-.05.04-.08.07-.17.09-.33.1-.42.02-.52-.28-1.04-.69-1.39-3.27-3.38-6.55-6.76-9.82-10.14-3.71-3.99-7.72-7.72-11.34-11.78,0,0,0,0,0,0,1.83,1.52,3.44,3.26,5.14,4.91,6.5,6.07,12.88,12.25,19.36,18.33,2.17,2.02,5.16,3.07,8.13,3.21,3.34.17,6.63-.66,9.76-1.69.09,0,.61-.27.26-.28-1.51.4-3.11.03-4.57-.42-.2-.07-.39-.15-.58-.22-1.83-.81-3.51-1.97-4.96-3.3-5-4.78-10.11-9.46-15.07-14.28-2.81-2.79-5.69-5.5-8.55-8.23-2.95-2.79-5.71-5.77-8.81-8.39-3.19-2.76-6.66-5.25-10.56-6.91-7.26-3.2-15.47-4.44-23.3-2.97-6.01,1.08-11.67,4.27-15.47,9.08,5.84-3.38,12.73-4.75,19.43-4.28,7.26.38,14.25,3.14,20.22,7.21.83.58,1.71,1.12,2.36,1.91-2.62-1.68-5.31-3.29-8.2-4.47-6.29-2.72-13.32-3.6-20.09-2.65-5.85.8-11.58,3.27-15.75,7.51-2.95,2.95-4.88,6.91-5.25,11.08-.48,4.24.83,8.46,2.85,12.15-.19-.94-.55-1.83-.76-2.77-.64-2.61-.83-5.36-.37-8.02.61-3.66,2.61-7.03,5.43-9.43,3.94-3.38,9.12-5.08,14.25-5.36,4.1-.25,8.2.56,12.06,1.89ZM240.25,81.4c-.71-2.28-1.22-4.63-1.39-7.02-.23-3.12.17-6.45,2.02-9.06-.77,2.79-1.29,5.76-.59,8.62.87,3.99,3.11,7.59,6.02,10.41.12.08.06-.12.05-.14-.62-1.6-1.27-3.24-1.21-4.99-.03-1.64.68-3.21,1.79-4.38,1.72-1.81,3.54-3.52,5.27-5.32-3.98-3.95-7.93-7.93-11.91-11.88-3.98,3.96-7.94,7.93-11.92,11.9,3.95,3.96,7.93,7.89,11.87,11.87ZM247.42,178.6c-1.5-2.21-3.22-4.25-4.97-6.27-2.28-.73-4.57-1.25-6.83-1.56-2-.28-4.05-.28-6.22-.27-.44,0-.88,0-1.31,0-1.79,0-3.58,0-5.37,0,2.41,2.71,4.8,5.44,7.15,8.2,2.64,3.12,5.4,6.14,7.93,9.36,4.28,5.4,7.35,11.94,7.88,18.87.28,2.37.03,4.75-.05,7.13.01-.04.02-.07.04-.11l-.04.3c7.82-21.06-10.25-39.76-10.25-39.76,11.86,12.05,14.54,22.52,14.12,30.15,1.85-4.91,2.85-10.22,2.1-15.45-.55-3.79-2.03-7.42-4.18-10.58ZM330.82,148.37c-1.48.36-3.02-.05-4.42-.55-2.28-.88-4.28-2.4-5.95-4.17-4.56-4.86-9.23-9.62-13.75-14.52-2.94-3.25-5.97-6.41-8.96-9.62-4.55-4.94-9.1-9.88-13.46-14.99-2.62-3.1-5.4-6.07-8.11-9.1-5.59-6.22-11.2-12.43-16.62-18.8-.83,1.84-.98,3.95-.65,5.93.06.34.13.68.23,1.01.04.16.1.32.15.48.05.14.09.29.14.43.07.2.16.39.24.58.06.15.13.3.2.44.02.03.03.07.05.1.07.14.15.28.22.41.05.09.09.18.14.27.09.15.18.3.28.45.59.95,1.28,1.83,2.03,2.64,3.48,3.88,6.94,7.78,10.4,11.67.59.67,1.18,1.33,1.77,1.99,1.02,1.15,2.04,2.3,3.07,3.44.05.05.1.1.15.16.53.62,1.06,1.25,1.56,1.89,0,0,0,0,0,0-1.7-1.36-3.05-3.09-4.58-4.64-3.51-3.47-6.94-7.01-10.4-10.53-1.46-1.51-2.94-3.15-4.95-3.92-.87-.35-1.96-.27-2.65.41-.43.42-.75.9-.99,1.43-.54,1.03-.78,2.23-.79,3.39-.01,5.37-.02,10.74,0,16.11-.02,2.82-.18,5.68-1.01,8.4-.36,1.21-1.05,2.29-1.84,3.27h27.43l12.5,13.71h0s.06.06.08.09h-29.28l-28.65-32.13c-.62-.71-1.24-1.41-1.88-2.1-1.12,2.89-.99,6.24.43,9,1.05,2.21,2.86,3.9,4.44,5.72,2.63,2.96,5.28,5.92,7.9,8.89,2.39,2.81,5.03,5.42,7.3,8.33-1.71-1.36-3.06-3.09-4.59-4.64-3.51-3.47-6.94-7.01-10.4-10.53-1.46-1.51-2.94-3.15-4.95-3.92-.87-.35-1.96-.27-2.65.41-1.28,1.22-1.78,3.05-1.8,4.77-.01,5.37-.02,10.75,0,16.12-.02,2.87-.19,5.78-1.06,8.53-.37,1.14-1.02,2.16-1.77,3.1h27.28l21.48,24.19c.05.06.11.12.16.19.04.05.1.12.17.21.39.47.77.95,1.16,1.43.4.5.85,1.07,1.32,1.68.36.48.7.96,1.03,1.46h0s8.62,11.02,6.11,27.01c9.05-19.97-7.86-40.82-8.45-41.54,10.15,12.08,13.07,22.02,13.04,29.5,1.59-3.84,2.77-7.89,3.03-12.04.31-4.41-.6-8.89-2.61-12.82-.43-.86-.92-1.69-1.44-2.5-.14-.23-.29-.46-.46-.72-2.84-4.11-12.15-14.22-13.84-16.04h36.08c.41-.07.8-.23,1.05-.58.45-.67.1-1.5-.44-1.99-3.08-3.47-6.16-6.93-9.23-10.4-3.49-4.09-7.27-7.93-10.66-12.09,1.73,1.57,3.25,3.36,4.85,5.05,6.13,6.24,12.14,12.59,18.25,18.85,2.05,2.08,4.91,3.21,7.79,3.43,3.23.26,6.44-.48,9.51-1.42.09,0,.6-.25.26-.27ZM265.39,110.9v-4.2l3.83,4.2h-3.83ZM238.42,136.25v-1.39c0-1.03,0-2.06,0-3.09l3.98,4.48h-3.98ZM264.72,181.11c-1.94-3.79-4.92-6.97-8.28-9.54-5.78-4.34-12.71-6.93-19.75-8.37-2.56-.55-5.17-.71-7.74-1.18,0,0,11.16-.18,21.9,3.96-1.33-1.35-2.79-2.58-4.11-3.95-3.2-3.17-6.4-6.34-9.61-9.51-1.54,1.63-3.52,2.84-5.7,3.36-1.3.34-2.66.33-4,.37-7.87.2-15.76.17-23.63-.2-5.34-.29-10.7-.83-15.86-2.27-3.31-.93-6.55-2.23-9.46-4.08-3.48-2.24-6.56-5.14-8.83-8.61-1.71-2.6-2.93-5.52-3.6-8.56-1.06-4.64-.81-9.51.32-14.11,1.04-4.36,3.26-8.43,6.43-11.6.34-.34.69-.67,1.05-1-.1-1.54-.12-3.08-.06-4.63-1.21.83-2.36,1.73-3.43,2.72-4.88,4.46-8.19,10.49-9.71,16.91-1.24,4.83-1.3,9.88-.88,14.83-1.02-4.19-1.06-8.57-.74-12.85.76-6.48,3.53-12.58,7.29-17.86-6.6,5.78-10.56,14.14-11.93,22.72-1.21,7.38-.3,15.25,3.32,21.87,2.05,3.74,4.98,6.95,8.44,9.43,5.94,4.26,13.1,6.42,20.25,7.53,4.81.75,9.68.96,14.53.99,2.65.03,5.3.23,7.96.19,6.4-.02,12.8-.02,19.2-.02,2.64,0,5.29-.07,7.91.3,5.34.74,10.5,2.53,15.29,4.99,2.63,1.38,5.21,2.92,7.47,4.87,2.84,2.44,5.34,5.37,6.89,8.81.49,1.07.7,2.24,1.08,3.35.06-.44.09-.89.06-1.33-.22-2.61-.83-5.21-2.06-7.53Z"/>
  <g>
    <path class="cls-1" d="M178.21,185.45c-.9,0-2.09,0-3,0,.09.05.18.09.25.13.03.02.07.04.1.06.26.19.34.55.2.84l-4,9.08-3.22-9.01c-.21-.51.01-.96.57-1.1,0,0,0,0,0,0h-4.01c.22.07.34.14.5.26.33.25.52.63.67.99l4.76,12.75c.05.14.1.28.16.44.02-.05.03-.09.04-.13l5.65-13.08c.34-.94.81-1.07,1.31-1.24,0,0,0,0,0-.01Z"/>
    <path class="cls-1" d="M207.89,185.44h3.95c-.56.2-.76.65-.91,1.15-.04.14-.06.29-.06.44,0,1.23,0,2.47,0,3.7,0,.61.26,1.08.76,1.42.36.25.78.37,1.21.43.02,0,.04,0,.06.01,0,0,0,0,.01,0-.2.06-.4.11-.59.18-.42.15-.79.37-1.06.73-.25.33-.38.7-.38,1.11,0,1.31,0,2.61,0,3.92,0,.22.03.43.11.63.13.33.36.55.69.67.04.01.07.03.11.04,0,0,0,0,0,.01h-3.93s.02-.02.03-.02c.43-.15.67-.47.8-.89.07-.23.11-.47.11-.72,0-3.81,0-7.61,0-11.42,0-.3-.05-.59-.2-.86-.14-.26-.36-.42-.64-.52-.02,0-.05-.02-.07-.02,0,0,0,0,0-.01Z"/>
    <path class="cls-1" d="M221.36,199.9h-3.91s.05-.03.07-.03c.52-.16.79-.52.86-1.04.02-.12.02-.24.02-.36,0-1.26,0-2.51,0-3.77,0-.75-.34-1.31-.98-1.69-.3-.18-.64-.29-.98-.37-.03,0-.07-.02-.12-.03.17-.03.32-.06.47-.1.43-.11.82-.28,1.13-.6.3-.32.47-.7.47-1.14,0-1.2,0-2.41,0-3.61,0-.4-.11-.76-.29-1.11-.16-.31-.34-.47-.68-.61h3.93c-.12.06-.25.11-.37.19-.29.19-.43.49-.48.82-.03.15-.04.3-.04.46,0,3.83,0,7.65,0,11.48,0,.46.13.89.48,1.22.13.12.29.2.42.28Z"/>
    <path class="cls-1" d="M135.96,187.41c-.61.75-.98,1.54-.98,2.52.01,2.77,0,5.55,0,8.33,0,.15-.02.31-.06.45-.14.53-.37,1-.97,1.19,1.39,0,2.75,0,4.12,0l-.1-.04c-.37-.13-.64-.39-.74-.77-.06-.2-.09-.42-.09-.64,0-1.42,0-2.84,0-4.27,0-.74.4-1.11.94-1.33.26-.11.56-.13.85-.17.32-.04.64-.05.9-.07-.19-.02-.44-.03-.7-.06-.5-.06-1.04-.16-1.46-.45-.53-.38-.63-1.04-.64-1.65-.02-1.8.69-3.59,2.17-4.67.11-.08.35-.31.5-.32,0,0-2.29.17-3.73,1.95Z"/>
    <path class="cls-1" d="M163.65,194.94c-.27.36-.85.29-1.01-.13,0,0,0,0,0,0-.69-1.79-1.39-3.57-2.11-5.36-.4-.99-.81-1.99-1.23-2.98-.17-.42.04-.83.49-.97.04-.01.08-.02.15-.04h-3.89s.01.02.02.02c.96.52,1.29,1.69,1.7,2.63,1.63,3.78,3.2,7.56,4.69,11.35.05.14.11.27.17.42l3.51-8.73-2.49,3.81Z"/>
    <path class="cls-1" d="M141.54,185.44s0,0,0,0c.03,0,.06.02.09.02.55.13,1.08.32,1.57.6.86.49,1.5,1.17,1.83,2.12.1.29.16.6.22.84v-3.58h-3.71Z"/>
    <path class="cls-1" d="M153.83,199.86h4.03c-.41-.06-.74-.17-1-.5-.27-.34-.44-.76-.62-1.15-.19-.42-.38-.83-.58-1.24-.4-.86-.81-1.72-1.21-2.58-.48-1.02-.97-2.04-1.42-3.07-.84-1.94-1.65-3.89-2.48-5.83,0-.02-.02-.04-.04-.08-.02.04-.03.07-.04.1-.23.51-.47,1.02-.7,1.53-.55,1.19-1.09,2.39-1.64,3.58-.63,1.37-1.25,2.74-1.88,4.11-.48,1.04-.95,2.08-1.43,3.12-.36.78-.72,1.81-1.82,2.02h3.21c-.24-.05-.49-.09-.67-.26-.16-.15-.27-.34-.29-.56-.02-.19.02-.38.1-.56,0,0,1.34-2.9,1.34-2.9.16-.31.58-.42.92-.41l.76.02c-.15-.04-.29-.07-.42-.12-.33-.12-.53-.35-.54-.7,0-.16.02-.33.07-.49l2.31-5.22,2.25,5.22c.15.42.03.76-.36.98-.18.1-.36.17-.56.25l-.22.08c.22,0,.51,0,.71.02,1,.1,1.57.78,1.96,1.67.27.63.52,1.26.78,1.89.03.07.05.15.06.22.04.45-.17.74-.59.86Z"/>
    <path class="cls-1" d="M178.98,199.86h-3.21c1.1-.21,1.47-1.24,1.82-2.02.48-1.04.95-2.08,1.43-3.12.63-1.37,1.25-2.74,1.88-4.11.55-1.19,1.09-2.39,1.64-3.58.23-.51.47-1.02.7-1.53.01-.03.02-.05.04-.1.02.03.03.06.04.08.82,1.94,1.64,3.89,2.48,5.83.45,1.04.95,2.05,1.42,3.07.4.86.81,1.72,1.21,2.58.19.41.39.82.58,1.24.17.39.35.81.62,1.15s.6.44,1,.5h-4.03c.43-.11.64-.41.59-.86,0-.08-.03-.15-.06-.22-.26-.63-.51-1.26-.78-1.89-.38-.89-.96-1.57-1.96-1.67-.2-.02-.48-.02-.71-.02l.22-.08c.19-.08.38-.15.56-.25.38-.22.51-.56.36-.98l-2.25-5.22-2.31,5.22c-.06.15-.08.32-.07.49,0,.36.21.58.54.7.13.05.27.08.42.12l-.76-.02c-.35-.01-.77.1-.92.41,0,0-1.33,2.9-1.34,2.9-.08.18-.12.36-.1.56.02.22.13.41.29.56.18.17.43.22.67.26Z"/>
    <path class="cls-1" d="M194.86,199.86h-3.21c1.1-.21,1.47-1.24,1.82-2.02.48-1.04.95-2.08,1.43-3.12.63-1.37,1.25-2.74,1.88-4.11.55-1.19,1.09-2.39,1.64-3.58.23-.51.47-1.02.7-1.53.01-.03.02-.05.04-.1.02.03.03.06.04.08.82,1.94,1.64,3.89,2.48,5.83.45,1.04.95,2.05,1.42,3.07.4.86.81,1.72,1.21,2.58.19.41.39.82.58,1.24.17.39.35.81.62,1.15s.6.44,1,.5h-4.03c.43-.11.64-.41.59-.86,0-.08-.03-.15-.06-.22-.26-.63-.51-1.26-.78-1.89-.38-.89-.96-1.57-1.96-1.67-.2-.02-.48-.02-.71-.02l.22-.08c.19-.08.38-.15.56-.25.38-.22.51-.56.36-.98l-2.25-5.22-2.31,5.22c-.06.15-.08.32-.07.49,0,.36.21.58.54.7.13.05.27.08.42.12l-.76-.02c-.35-.01-.77.1-.92.41,0,0-1.33,2.9-1.34,2.9-.08.18-.12.36-.1.56.02.22.13.41.29.56.18.17.43.22.67.26Z"/>
  </g>
</svg>