<?xml version="1.0" encoding="UTF-8"?>
<svg id="Layer_1" data-name="Layer 1" xmlns="http://www.w3.org/2000/svg" version="1.1" viewBox="0 0 595.28 841.89">
  <defs>
    <style>
      .cls-1 {
        fill: #7cccbf;
        stroke-width: 0px;
      }
    </style>
  </defs>
  <path class="cls-1" d="M270.71,275.78c-92.22,0-167.24,75.02-167.24,167.24s75.02,167.24,167.24,167.24,167.24-75.02,167.24-167.24-75.02-167.24-167.24-167.24ZM270.71,601.75c-87.53,0-158.74-71.21-158.74-158.74s71.21-158.73,158.74-158.73,158.73,71.21,158.73,158.73-71.21,158.74-158.73,158.74Z"/>
  <path class="cls-1" d="M323.86,382.6h0c-7.37,0-14.29,2.87-19.49,8.08l-46.2,46.2-13.36-13.35c-5.21-5.2-12.13-8.07-19.49-8.07s-14.29,2.87-19.49,8.08c-5.21,5.21-8.08,12.13-8.08,19.49,0,7.36,2.87,14.29,8.08,19.5l32.85,32.84c5.21,5.21,12.13,8.07,19.49,8.07s14.29-2.87,19.49-8.08l65.69-65.69c5.21-5.21,8.08-12.13,8.08-19.49s-2.87-14.29-8.08-19.49c-5.2-5.21-12.13-8.08-19.49-8.08Z"/>
  <path class="cls-1" d="M423.42,307.82c1.09.03,2.19-.35,3.04-1.15l37.92-35.71c1.71-1.61,1.79-4.3.18-6.01-1.61-1.71-4.3-1.79-6.01-.18l-37.92,35.71c-1.71,1.61-1.79,4.3-.18,6.01.8.85,1.88,1.3,2.97,1.33Z"/>
  <path class="cls-1" d="M487.72,346.99l-52.06-1.56c-2.35-.07-4.31,1.78-4.38,4.12s1.78,4.31,4.12,4.38l52.06,1.56c2.35.07,4.31-1.78,4.38-4.12s-1.78-4.31-4.12-4.38Z"/>
  <path class="cls-1" d="M378.11,293.1c2.35.07,4.31-1.78,4.38-4.12l1.56-52.07c.07-2.35-1.78-4.31-4.12-4.38s-4.31,1.78-4.38,4.12l-1.56,52.07c-.07,2.35,1.78,4.31,4.12,4.38Z"/>
</svg>