<?xml version="1.0" encoding="UTF-8"?>
<svg id="Layer_1" data-name="Layer 1" xmlns="http://www.w3.org/2000/svg" version="1.1" viewBox="0 0 595.28 841.89">
  <defs>
    <style>
      .cls-1 {
        fill: #7cccbf;
        stroke-width: 0px;
      }
    </style>
  </defs>
  <path class="cls-1" d="M324.38,323.87c-39.48-39.48-103.72-39.48-143.2,0-39.48,39.48-39.48,103.72,0,143.2,19.74,19.74,45.67,29.61,71.6,29.61s51.86-9.87,71.6-29.61,29.66-44.55,29.66-71.6-10.53-52.48-29.66-71.6ZM318.37,461.06c-36.17,36.17-95.01,36.17-131.18,0-36.17-36.17-36.17-95.01,0-131.18,18.08-18.08,41.84-27.12,65.59-27.12s47.51,9.04,65.59,27.12c17.52,17.52,27.17,40.81,27.17,65.59s-9.65,48.07-27.17,65.59Z"/>
  <path class="cls-1" d="M326.92,391.22c-2.35,0-4.25,1.9-4.25,4.25,0,4.39-.41,8.78-1.22,13.05-.44,2.31,1.08,4.53,3.39,4.97.27.05.53.07.79.07,2,0,3.79-1.42,4.17-3.46.9-4.79,1.36-9.71,1.36-14.63,0-2.35-1.9-4.25-4.25-4.25Z"/>
  <path class="cls-1" d="M480.69,561.64l-70.15-70.15c-3.08-3.08-7.18-4.78-11.54-4.78s-8.46,1.7-11.54,4.78l-5.39,5.39-23.27-23.27c38.52-52.12,33.25-125.09-12.9-171.24-51.34-51.34-134.88-51.34-186.23,0-51.34,51.34-51.34,134.88,0,186.23,25.55,25.55,59.31,38.57,93.21,38.57,27.34,0,54.76-8.47,78.03-25.67l23.27,23.27-5.39,5.39c-6.37,6.37-6.37,16.72,0,23.09l70.15,70.15c3.18,3.18,7.36,4.77,11.54,4.77s8.36-1.59,11.54-4.77l38.66-38.66c6.37-6.37,6.37-16.72,0-23.09ZM334.29,492.85c-.83-.83-1.91-1.25-3.01-1.25-.92,0-1.85.3-2.62.91-48.91,38.34-118.97,34.07-162.98-9.94-48.03-48.03-48.03-126.17,0-174.2,48.03-48.03,126.17-48.03,174.2,0,44.01,44.01,48.28,114.08,9.94,162.98-1.33,1.69-1.18,4.11.34,5.63l25.9,25.89-15.86,15.86-25.9-25.9Z"/>
  <path class="cls-1" d="M389.93,293.85c1.08.13,2.21-.14,3.14-.87l41.08-32.03c1.85-1.44,2.18-4.12.74-5.97-1.44-1.85-4.12-2.18-5.97-.74l-41.08,32.03c-1.85,1.44-2.18,4.12-.74,5.97.72.93,1.75,1.47,2.83,1.6Z"/>
  <path class="cls-1" d="M393.86,336.13c-.29,2.33,1.37,4.45,3.7,4.74l51.69,6.4c2.33.29,4.45-1.37,4.74-3.7s-1.37-4.45-3.7-4.74l-51.69-6.4c-2.33-.29-4.45,1.37-4.74,3.7Z"/>
  <path class="cls-1" d="M346.18,274.99c2.33.29,4.45-1.37,4.74-3.7l6.4-51.69c.29-2.33-1.37-4.45-3.7-4.74s-4.45,1.37-4.74,3.7l-6.4,51.69c-.29,2.33,1.37,4.45,3.7,4.74Z"/>
  <path class="cls-1" d="M319.13,428.87c-2.03-1.18-4.63-.48-5.81,1.55-12.47,21.56-35.67,34.95-60.54,34.95-2.35,0-4.25,1.9-4.25,4.25s1.9,4.25,4.25,4.25c27.9,0,53.92-15.02,67.9-39.19,1.18-2.03.48-4.63-1.55-5.81Z"/>
</svg>