<?xml version="1.0" encoding="UTF-8"?>
<svg id="Layer_1" data-name="Layer 1" xmlns="http://www.w3.org/2000/svg" version="1.1" viewBox="0 0 595.28 700">
  <defs>
    <style>
      .cls-1 {
        fill: #7cccbf;
        stroke-width: 0px;
      }
    </style>
  </defs>
  <path class="cls-1" d="M278.73,277.34c2.35,0,4.25-1.9,4.25-4.25v-52.09c0-2.35-1.9-4.25-4.25-4.25s-4.25,1.9-4.25,4.25v52.09c0,2.35,1.9,4.25,4.25,4.25Z"/>
  <path class="cls-1" d="M320.51,300.23c1.09,0,2.18-.42,3.01-1.25l36.83-36.83c1.66-1.66,1.66-4.35,0-6.01-1.66-1.66-4.35-1.66-6.01,0l-36.83,36.83c-1.66,1.66-1.66,4.35,0,6.01.83.83,1.92,1.25,3.01,1.25Z"/>
  <path class="cls-1" d="M233.94,298.99c.83.83,1.92,1.25,3.01,1.25s2.18-.42,3.01-1.25c1.66-1.66,1.66-4.35,0-6.01l-36.83-36.83c-1.66-1.66-4.35-1.66-6.01,0-1.66,1.66-1.66,4.35,0,6.01l36.83,36.83Z"/>
  <path class="cls-1" d="M485.41,487.06c-8.72-11.71-21.89-19.33-37.22-21.61,6.96-21.54,9.27-43.89,6.97-67.26-2.75-28.05-15.7-52.39-36.46-68.56-20.78-16.18-47.58-22.78-75.49-18.57-22.09,3.33-42.52,13.97-64.05,33.4-.97-.79-1.94-1.58-2.9-2.36-4.48-3.66-8.72-7.11-13.24-10.45-31.44-23.1-67.86-28.85-99.92-15.79-31.77,12.95-53.57,42.17-59.82,80.18-5.83,35.36,2.27,71.3,24.05,106.8,16.46,26.81,37.14,49.68,63.24,69.92,22.89,17.75,49.51,33.1,81.39,46.92,1.99.86,4.26,1.21,6.57,1.21,3.63,0,7.34-.89,10.18-2.14,15.69-6.86,30.26-14.3,43.84-22.35,8.1,9.23,17.58,18.2,28.57,27.05,2.25,1.8,5.53,2.53,8.38,2.53.77,0,1.51-.05,2.19-.15,25.84-3.72,47.9-10.92,67.44-22.01,32.34-18.35,50.66-42.28,56.01-73.16,2.76-15.96-.7-31.44-9.75-43.6ZM285.31,610.96c-3.29,1.45-7.77,1.85-9.97.9-66.08-28.64-110.81-64.7-140.76-113.47-20.68-33.71-28.39-67.68-22.91-100.97,5.76-35.02,25.67-61.87,54.64-73.68,10.23-4.17,20.96-6.22,31.83-6.22,20.24,0,40.98,7.12,59.84,20.98,4.35,3.2,8.51,6.59,12.9,10.18,1.86,1.52,3.73,3.05,5.64,4.58.76.67,1.76,1.06,2.82,1.06,1.23,0,2.37-.53,3.16-1.4,21.12-19.63,40.82-30.26,61.97-33.46,25.58-3.85,50.08,2.14,69,16.87,18.9,14.72,30.7,36.98,33.22,62.68,2.24,22.84-.15,44.69-7.27,65.77-10.07.03-20.44,2.74-31.93,8.31-.09-.13-.19-.26-.28-.4-1.79-2.52-3.64-5.13-5.6-7.62-13.85-17.56-33.15-26.3-52.94-23.95-19.61,2.32-36.17,15.16-45.43,35.22-8.55,18.52-9.56,39.42-3.01,62.13,5.35,18.51,14.1,35.35,26.79,51.31-12.94,7.61-26.81,14.66-41.73,21.19Z"/>
  <path class="cls-1" d="M209.65,338.24c-.12,0-.24,0-.36,0-45.26,0-63.75,22.51-71.29,41.42-.87,2.18.19,4.65,2.38,5.52.52.21,1.05.3,1.57.3,1.69,0,3.29-1.01,3.95-2.68,9.54-23.93,30.86-36.07,63.38-36.07.12,0,.24,0,.36,0,2.34,0,4.25-1.9,4.25-4.24,0-2.35-1.89-4.26-4.24-4.26Z"/>
  <path class="cls-1" d="M137.31,398.85c-1.69-.15-4.32.81-4.64,4.09-.02.16-.02.31-.03.46-.54,7.01-.06,11.73-.04,11.93.23,2.18,2.07,3.81,4.22,3.81.15,0,.29,0,.44-.02,2.33-.24,4.03-2.33,3.79-4.66,0-.04-.43-4.39.09-10.77,0-.02,0-.04,0-.06.24-3.2-2.23-4.62-3.84-4.77Z"/>
</svg>